Patient4_TMGait_0pt7_02_left_14_GRF.mot
version=1
nRows=65
nColumns=19
inDegrees=no
endheader
time	F1x	F1y	F1z	M1x	M1y	M1z	F2x	F2y	F2z	M2x	M2y	M2z	EC1x	EC1y	EC1z	EC2x	EC2y	EC2z
15.71	25.5687	-3.5698	17.2377	-1.9195	-8.5353	-2.3379	-26.7399	801.2314	-49.2534	305.2369	71.7177	812.0953	-0.0592	0.0182	-0.0073	-0.0462	0.0165	0.9585
15.7214	17.0257	-1.4939	11.534	-1.6	-5.7774	-0.51028	-23.6951	793.4178	-55.5728	304.0739	73.2192	801.6808	-0.0592	0.0182	-0.0073	-0.0462	0.0165	0.9585
15.7329	9.8682	0.26618	6.7807	-1.3442	-3.4849	1.0296	-20.485	783.9236	-60.6976	301.9143	73.861	789.0224	-0.0592	0.0182	-0.0073	-0.0462	0.0165	0.9585
15.7443	4.4442	1.6403	3.187	-1.1705	-1.7497	2.2523	-17.2568	773.146	-64.2354	298.8077	73.5006	774.6466	-0.0592	0.0182	-0.0073	-0.0462	0.0165	0.9585
15.7557	0.73179	2.6198	0.74041	-1.0713	-0.57131	3.1382	-14.0826	761.613	-66.2146	294.9702	72.2186	759.2193	-0.0592	0.0182	-0.0073	-0.0462	0.0165	0.9585
15.7671	-1.559	3.285	-0.75066	-1.0382	0.14059	3.7777	-10.9922	749.9224	-66.8866	290.7046	70.2082	743.4439	-0.0592	0.0182	-0.0073	-0.0462	0.0165	0.9585
15.7786	-2.7684	3.678	-1.5093	-1.0426	0.48661	4.1715	-7.9716	738.672	-66.6115	286.3338	67.7157	727.9835	-0.0592	0.0182	-0.0073	-0.0462	0.0165	0.9585
15.79	-3.2619	3.8587	-1.759	-1.0576	0.5635	4.3733	-5.004	728.4138	-65.7234	282.1637	64.9563	713.4341	-0.0592	0.0182	-0.0073	-0.0462	0.0165	0.9585
15.8014	-3.3076	3.8098	-1.6932	-1.0413	0.46999	4.317	-2.0497	719.6218	-64.4777	278.4578	62.078	700.2766	-0.0592	0.0182	-0.0073	-0.0462	0.0165	0.9585
15.8129	-3.1614	3.5081	-1.4423	-0.95279	0.25246	3.9748	0.94771	712.6868	-63.0614	275.424	59.1724	688.883	-0.0592	0.0182	-0.0073	-0.0462	0.0165	0.9585
15.8243	-2.9373	2.8528	-1.1141	-0.73931	-0.022675	3.2177	4.0617	707.8382	-61.5998	273.1908	56.275	679.4336	-0.0592	0.0182	-0.0073	-0.0462	0.0165	0.9585
15.8357	-2.7466	1.7574	-0.7719	-0.35856	-0.3251	1.9557	7.3767	705.1665	-60.2001	271.8087	53.4073	671.9787	-0.0592	0.0182	-0.0073	-0.0462	0.0165	0.9585
15.8471	-2.579	0.11826	-0.4645	0.22538	-0.59951	0.041367	10.9601	704.5705	-58.9317	271.2418	50.573	666.3865	-0.0592	0.0182	-0.0073	-0.0462	0.0165	0.9585
15.8586	-2.4106	-2.0794	-0.22979	1.0192	-0.79098	-2.5394	14.8466	705.7965	-57.8537	271.3796	47.7904	662.4056	-0.0592	0.0182	-0.0073	-0.0462	0.0165	0.9585
15.87	-2.1305	-4.7734	-0.10378	1.9924	-0.81454	-5.748	19.0356	708.4141	-57.0139	272.0382	45.0875	659.6359	-0.0592	0.0182	-0.0073	-0.0462	0.0165	0.9585
15.8814	-1.6196	-7.6635	-0.1427	3.0308	-0.56007	-9.2187	23.4355	711.8421	-56.467	272.972	42.5358	657.5747	-0.0592	0.0182	-0.0073	-0.0462	0.0165	0.9585
15.8929	-0.67981	-10.193	-0.39431	3.9195	0.10131	-12.31	27.9184	715.4054	-56.2733	273.902	40.2364	655.6564	-0.0592	0.0182	-0.0073	-0.0462	0.0165	0.9585
15.9043	0.83608	-11.371	-0.9395	4.292	1.3196	-13.8336	32.2902	718.4468	-56.4868	274.562	38.308	653.3691	-0.0592	0.0182	-0.0073	-0.0462	0.0165	0.9585
15.9157	3.1184	-9.7436	-1.8354	3.6126	3.2293	-12.0873	36.3717	720.4006	-57.1389	274.7336	36.8484	650.2884	-0.0592	0.0182	-0.0073	-0.0462	0.0165	0.9585
15.9271	6.2082	-3.3068	-3.1493	1.153	5.9225	-4.6933	40.0074	720.835	-58.2134	274.2595	35.9059	646.1204	-0.0592	0.0182	-0.0073	-0.0462	0.0165	0.9585
15.9386	10.0345	10.3751	-4.8682	-3.971	9.3529	11.1964	43.1229	719.3569	-59.6185	273.0128	35.4434	640.5848	-0.0592	0.0182	-0.0073	-0.0462	0.0165	0.9585
15.95	14.1898	33.9469	-6.8921	-12.7091	13.2473	38.7213	45.6867	715.5869	-61.1644	270.882	35.3252	633.4119	-0.0592	0.0182	-0.0073	-0.0462	0.0165	0.9585
15.9614	17.8657	69.6967	-8.9339	-25.8738	16.9618	80.5809	47.7436	708.9872	-62.5663	267.7093	35.3109	624.1509	-0.0592	0.0182	-0.0073	-0.0462	0.0165	0.9585
15.9729	19.6187	118.7147	-10.4617	-43.8209	19.3344	138.1432	49.3462	698.7541	-63.4739	263.2379	35.0968	612.1164	-0.0592	0.0182	-0.0073	-0.0462	0.0165	0.9585
15.9843	17.4204	179.8575	-10.6675	-66.083	18.6847	210.1541	50.553	683.7556	-63.5192	257.0868	34.3658	596.3233	-0.0592	0.0182	-0.0073	-0.0462	0.0165	0.9585
15.9957	9.6227	249.6069	-8.6249	-91.3061	13.3443	292.5945	51.3475	662.6669	-62.4078	248.7881	32.8854	575.6427	-0.0592	0.0182	-0.0073	-0.0462	0.0165	0.9585
16.0071	-3.1395	322.4063	-3.3257	-117.3941	2.3955	378.8439	51.6435	634.1912	-59.9796	237.865	30.5611	548.9645	-0.0592	0.0182	-0.0073	-0.0462	0.0165	0.9585
16.0186	-18.5874	390.9608	5.4953	-141.7152	-13.5618	459.9879	51.2477	597.3299	-56.2427	223.9335	27.4751	515.4419	-0.0592	0.0182	-0.0073	-0.0462	0.0165	0.9585
16.03	-33.8275	449.7199	16.8725	-162.3536	-32.2811	528.9603	49.9558	551.6836	-51.3771	206.8236	23.8618	474.7246	-0.0592	0.0182	-0.0073	-0.0462	0.0165	0.9585
16.0414	-47.3498	498.2355	28.8868	-179.248	-50.9357	584.9176	47.5449	497.8717	-45.6712	186.725	20.0409	427.3604	-0.0592	0.0182	-0.0073	-0.0462	0.0165	0.9585
16.0529	-58.3528	539.5747	39.8582	-193.6023	-67.3407	631.2839	43.8473	437.4955	-39.4986	164.1931	16.3687	374.7226	-0.0592	0.0182	-0.0073	-0.0462	0.0165	0.9585
16.0643	-66.7818	577.1625	48.7449	-206.7205	-80.2652	672.2057	38.824	372.9447	-33.2672	140.0824	13.1744	318.8649	-0.0592	0.0182	-0.0073	-0.0462	0.0165	0.9585
16.0757	-72.3866	612.9931	54.8616	-219.3584	-88.9182	710.029	32.5867	307.12	-27.288	115.454	10.6461	262.2509	-0.0592	0.0182	-0.0073	-0.0462	0.0165	0.9585
16.0871	-75.176	647.107	58.513	-231.5045	-93.6623	744.9991	25.475	243.1536	-21.8173	91.4742	8.8487	207.5088	-0.0592	0.0182	-0.0073	-0.0462	0.0165	0.9585
16.0986	-75.1714	678.5085	60.3271	-242.7345	-95.2805	775.978	18.0759	184.111	-17.0195	69.2917	7.688	157.1821	-0.0592	0.0182	-0.0073	-0.0462	0.0165	0.9585
16.11	-72.7108	705.8915	61.2563	-252.4838	-94.9925	801.7531	11.1665	132.3923	-12.9508	49.8252	6.9129	113.2093	-0.0592	0.0182	-0.0073	-0.0462	0.0165	0.9585
16.1214	-68.2609	728.2667	62.0267	-260.324	-93.814	821.3715	5.4549	89.4528	-9.5901	33.638	6.2454	76.749	-0.0592	0.0182	-0.0073	-0.0462	0.0165	0.9585
16.1329	-62.5099	745.1398	63.0554	-266.0219	-92.4742	834.5504	1.3291	55.6641	-6.8229	20.896	5.4541	48.0367	-0.0592	0.0182	-0.0073	-0.0462	0.0165	0.9585
16.1443	-55.9933	756.2701	64.5804	-269.4765	-91.4283	841.235	-1.2503	30.6481	-4.5682	11.4671	4.4979	26.7547	-0.0592	0.0182	-0.0073	-0.0462	0.0165	0.9585
16.1557	-49.3215	761.8958	66.4085	-270.779	-90.6808	841.8632	-2.5039	13.4476	-2.7696	4.995	3.4278	12.0873	-0.0592	0.0182	-0.0073	-0.0462	0.0165	0.9585
16.1671	-42.8363	762.5603	68.336	-270.1555	-90.1148	837.1919	-2.8412	2.7579	-1.4171	0.98355	2.3907	2.9597	-0.0592	0.0182	-0.0073	-0.0462	0.0165	0.9585
16.1786	-36.8088	759.2101	69.8876	-267.9851	-89.3153	828.383	-2.6071	-2.9287	-0.51037	-1.14	1.5238	-1.9182	-0.0592	0.0182	-0.0073	-0.0462	0.0165	0.9585
16.19	-31.4059	752.8789	70.8527	-264.6803	-88.0991	816.6313	-2.1291	-5.1203	0.016795	-1.9488	0.89087	-3.7958	-0.0592	0.0182	-0.0073	-0.0462	0.0165	0.9585
16.2014	-26.734	744.672	71.1161	-260.6676	-86.3764	803.2028	-1.5583	-5.1311	0.28818	-1.9385	0.4466	-3.8039	-0.0592	0.0182	-0.0073	-0.0462	0.0165	0.9585
16.2129	-22.8608	735.6167	70.8915	-256.3291	-84.3791	789.203	-1.0442	-3.9508	0.36317	-1.4868	0.19081	-2.7511	-0.0592	0.0182	-0.0073	-0.0462	0.0165	0.9585
16.2243	-19.8085	726.6502	70.4346	-252.0135	-82.3769	775.6173	-0.60919	-2.3176	0.34455	-0.86601	0.040954	-1.3022	-0.0592	0.0182	-0.0073	-0.0462	0.0165	0.9585
16.2357	-17.4957	718.6979	69.9406	-248.0655	-80.5572	763.3703	-0.30079	-0.64246	0.26287	-0.23696	-0.013607	0.20963	-0.0592	0.0182	-0.0073	-0.0462	0.0165	0.9585
16.2471	-15.8791	712.5558	69.5159	-244.796	-79.0217	753.2228	-0.080533	0.79771	0.17432	0.30291	-0.033122	1.5022	-0.0592	0.0182	-0.0073	-0.0462	0.0165	0.9585
16.2586	-14.8154	708.8968	69.1026	-242.475	-77.6756	745.7755	0.030446	1.933	0.095538	0.72298	-0.024413	2.5357	-0.0592	0.0182	-0.0073	-0.0462	0.0165	0.9585
16.27	-14.1421	708.062	68.6922	-241.2513	-76.4527	741.2875	0.10008	2.7232	0.032814	1.0155	-0.0069383	3.2418	-0.0592	0.0182	-0.0073	-0.0462	0.0165	0.9585
16.2814	-13.7124	710.0145	68.2208	-241.1337	-75.2317	739.5869	0.099725	3.2365	-0.0080738	1.2067	0.018707	3.7088	-0.0592	0.0182	-0.0073	-0.0462	0.0165	0.9585
16.2929	-13.3495	714.3678	67.7365	-241.9923	-73.9999	740.1894	0.10055	3.517	-0.049795	1.3187	0.05551	3.9464	-0.0592	0.0182	-0.0073	-0.0462	0.0165	0.9585
16.3043	-12.9254	720.4761	67.2355	-243.6038	-72.7114	742.3585	0.056182	3.6618	-0.077323	1.3844	0.097457	4.0686	-0.0592	0.0182	-0.0073	-0.0462	0.0165	0.9585
16.3157	-12.3352	727.6042	66.7083	-245.7057	-71.3252	745.2992	0.024528	3.7158	-0.11362	1.4206	0.14745	4.0796	-0.0592	0.0182	-0.0073	-0.0462	0.0165	0.9585
16.3271	-11.4864	734.9528	66.1257	-248.0129	-69.7885	748.2006	-0.043466	3.7457	-0.14601	1.4482	0.19921	4.0685	-0.0592	0.0182	-0.0073	-0.0462	0.0165	0.9585
16.3386	-10.316	741.7198	65.421	-250.24	-68.0235	750.2261	-0.096787	3.7395	-0.19115	1.4654	0.25843	4.0045	-0.0592	0.0182	-0.0073	-0.0462	0.0165	0.9585
16.35	-8.7506	747.1206	64.6119	-252.1016	-66.0315	750.5921	-0.18339	3.7366	-0.24045	1.4781	0.33284	3.9595	-0.0592	0.0182	-0.0073	-0.0462	0.0165	0.9585
16.3614	-6.6905	750.4919	63.6592	-253.3564	-63.7551	748.6344	-0.26115	3.6649	-0.28933	1.462	0.40962	3.8298	-0.0592	0.0182	-0.0073	-0.0462	0.0165	0.9585
16.3729	-4.0654	751.3881	62.6306	-253.8344	-61.2408	743.9216	-0.37889	3.5074	-0.34353	1.4027	0.50742	3.6232	-0.0592	0.0182	-0.0073	-0.0462	0.0165	0.9585
16.3843	-0.76811	749.6328	61.5341	-253.4682	-58.4674	736.3021	-0.4982	3.1425	-0.39824	1.2599	0.61268	3.1715	-0.0592	0.0182	-0.0073	-0.0462	0.0165	0.9585
16.3957	3.2763	745.406	60.4727	-252.3069	-55.5096	725.9814	-0.65648	2.4918	-0.46256	0.99867	0.74559	2.4098	-0.0592	0.0182	-0.0073	-0.0462	0.0165	0.9585
16.4071	8.0919	739.2309	59.542	-250.5186	-52.4481	713.4978	-0.78554	1.4115	-0.52317	0.56787	0.87591	1.1529	-0.0592	0.0182	-0.0073	-0.0462	0.0165	0.9585
16.4186	13.6907	732.0168	58.8699	-248.3965	-49.3937	699.7794	-0.90507	-0.16814	-0.57145	-0.065753	0.98942	-0.65778	-0.0592	0.0182	-0.0073	-0.0462	0.0165	0.9585
16.43	19.9946	724.9277	58.6272	-246.318	-46.5188	685.993	-0.91379	-2.3183	-0.58113	-0.92308	1.0211	-3.1359	-0.0592	0.0182	-0.0073	-0.0462	0.0165	0.9585
16.4414	26.8957	719.2358	58.9461	-244.6959	-43.9635	673.4033	-0.78788	-4.9407	-0.5276	-1.9668	0.92077	-6.1487	-0.0592	0.0182	-0.0073	-0.0462	0.0165	0.9585
